<?xml version="1.0" ?><svg viewBox="0 0 64 64" xmlns="http://www.w3.org/2000/svg"><g id="a"/><g id="b"/><g id="c"/><g id="d"/><g id="e"/><g id="f"/><g id="g"/><g id="h"/><g id="i"/><g id="j"/><g id="k"/><g id="l"/><g id="m"/><g id="n"><rect fill="#f5e680" height="23.53" rx="2.17" ry="2.17" width="54" x="5" y="27.02"/><path d="M33.33,14.26l1.92,3.66,4.08,.69c1.19,.2,1.67,1.67,.82,2.53l-2.89,2.96,.6,4.09c.18,1.2-1.07,2.1-2.15,1.56l-3.71-1.83-3.71,1.83c-1.09,.54-2.33-.36-2.15-1.56l.6-4.09-2.89-2.96c-.85-.87-.37-2.33,.82-2.53l4.08-.69,1.92-3.66c.56-1.07,2.1-1.07,2.66,0Z" fill="#ebb680" fill-rule="evenodd"/><path d="M16.26,21.2l1.53,2.92,3.25,.55c.84,.14,1.17,1.17,.58,1.77l-2.31,2.36,.48,3.27c.12,.84-.75,1.47-1.51,1.1l-2.96-1.46-2.96,1.46c-.76,.38-1.63-.26-1.51-1.1l.48-3.27-2.31-2.36c-.59-.61-.26-1.63,.58-1.77l3.25-.55,1.53-2.92c.39-.75,1.47-.75,1.86,0Z" fill="#ebb680" fill-rule="evenodd"/><path d="M49.61,21.2l1.53,2.92,3.25,.55c.84,.14,1.17,1.17,.58,1.77l-2.31,2.36,.48,3.27c.12,.84-.75,1.47-1.51,1.1l-2.96-1.46-2.96,1.46c-.76,.38-1.63-.26-1.51-1.1l.48-3.27-2.31-2.36c-.59-.61-.26-1.63,.58-1.77l3.25-.55,1.53-2.92c.39-.75,1.47-.75,1.86,0Z" fill="#ebb680" fill-rule="evenodd"/><path d="M12.42,36.46c-.55,0-1,.45-1,1v5.56c0,.55,.45,1,1,1,.28,0,.55-.12,.74-.33l2.24-2.48,2.24,2.48c.19,.21,.46,.33,.74,.33,.55,0,1-.45,1-1v-5.56c0-.55-.45-1-1-1s-1,.45-1,1v2.96l-1.24-1.38c-.19-.21-.46-.33-.74-.33s-.55,.12-.74,.33l-1.24,1.37v-2.95c0-.55-.45-1-1-1Z" fill="#e6a361" fill-rule="evenodd"/><path d="M21.74,36.46c-.55,0-1,.45-1,1v5.56c0,.55,.45,1,1,1s1-.45,1-1v-5.56c0-.55-.45-1-1-1Z" fill="#e6a361" fill-rule="evenodd"/><path d="M29.67,36.46c-.55,0-1,.45-1,1v2.77l-2.8-3.41c-.19-.23-.47-.37-.77-.37-.55,0-1,.45-1,1h0v5.56c0,.55,.45,1,1,1s1-.45,1-1v-2.77l2.81,3.41c.19,.23,.47,.36,.77,.36,.55,0,1-.45,1-1v-5.56c0-.55-.45-1-1-1Z" fill="#e6a361" fill-rule="evenodd"/><path d="M37.6,36.46c-.55,0-1,.45-1,1v2.77l-2.81-3.41c-.19-.23-.47-.36-.77-.36-.55,0-1,.45-1,1v5.56c0,.55,.45,1,1,1s1-.45,1-1v-2.77l2.81,3.41c.19,.23,.47,.36,.77,.36,.55,0,1-.45,1-1v-5.56c0-.55-.45-1-1-1Z" fill="#e6a361" fill-rule="evenodd"/><path d="M40.96,36.46c-.55,0-1,.45-1,1v5.56c0,.55,.45,1,1,1h2.85c.55,0,1-.45,1-.99h0c0-.55-.45-1-1-1h-1.85v-3.56h1.85c.55,0,1-.45,1-1s-.45-1-1-1h-2.85Z" fill="#e6a361" fill-rule="evenodd"/><path d="M40.96,39.23c-.55,0-1,.45-1,1s.45,1,1,1h2.85c.55,0,1-.45,1-1s-.45-1-1-1h-2.85Z" fill="#e6a361" fill-rule="evenodd"/><path d="M47.17,36.46c-.55,0-1,.45-1,1v5.56c0,.55,.45,1,1,1s1-.45,1-1v-5.56c0-.55-.45-1-1-1Z" fill="#e6a361" fill-rule="evenodd"/><path d="M47.17,36.46c-.55,0-1,.45-1,1s.45,1,1,1h2.56c.49,0,.86,.36,.86,.86s-.37,.86-.86,.86h-2.56c-.55,0-1,.45-1,1s.45,1,1,1h2.56c1.57,0,2.86-1.29,2.86-2.86s-1.29-2.86-2.86-2.86h-2.56Z" fill="#e6a361" fill-rule="evenodd"/><path d="M49.72,40.17c-.26,0-.52,.11-.7,.3-.38,.39-.37,1.03,.02,1.41l1.86,1.8c.39,.38,1.03,.38,1.41-.02,.38-.39,.37-1.03-.02-1.41l-1.86-1.81c-.19-.18-.45-.29-.71-.28Z" fill="#e6a361" fill-rule="evenodd"/><path d="M25.65,45.81c-.55,0-1,.45-1,1s.45,1,1,1h12.71c.55,0,1-.45,1-1s-.45-1-1-1h-12.71Z" fill="#f9f3c7" fill-rule="evenodd"/><path d="M16.22,46.1c-.19,.19-.29,.44-.29,.71s.11,.52,.29,.71c.19,.19,.44,.29,.71,.29s.52-.11,.71-.29,.29-.44,.29-.71-.11-.52-.29-.71c-.19-.19-.44-.29-.71-.29s-.52,.11-.71,.29Z" fill="#f0f3f5" fill-rule="evenodd"/><path d="M20.37,46.1c-.19,.19-.29,.44-.29,.71s.1,.52,.29,.71c.19,.19,.44,.29,.71,.29s.52-.11,.71-.29c.19-.19,.29-.44,.29-.71s-.11-.52-.29-.71-.44-.29-.71-.29-.52,.11-.71,.29Z" fill="#f0f3f5" fill-rule="evenodd"/><path d="M42.22,46.1c-.19,.19-.29,.44-.29,.71s.11,.52,.29,.71c.19,.19,.44,.29,.71,.29s.52-.11,.71-.29c.19-.19,.29-.44,.29-.71s-.1-.52-.29-.71c-.19-.19-.44-.29-.71-.29s-.52,.11-.71,.29Z" fill="#f0f3f5" fill-rule="evenodd"/><path d="M46.37,46.1c-.19,.19-.29,.44-.29,.71s.11,.52,.29,.71,.44,.29,.71,.29,.52-.11,.71-.29c.19-.19,.29-.44,.29-.71s-.11-.52-.29-.71-.44-.29-.71-.29-.52,.11-.71,.29Z" fill="#f0f3f5" fill-rule="evenodd"/></g><g id="o"/><g id="p"/><g id="q"/><g id="r"/><g id="s"/><g id="t"/><g id="u"/><g id="v"/><g id="w"/><g id="x"/><g id="y"/><g id="a`"/><g id="aa"/><g id="ab"/><g id="ac"/><g id="ad"/><g id="ae"/><g id="af"/><g id="ag"/><g id="ah"/><g id="ai"/><g id="aj"/><g id="ak"/><g id="al"/><g id="am"/><g id="an"/><g id="ao"/><g id="ap"/><g id="aq"/><g id="ar"/><g id="as"/><g id="at"/><g id="au"/><g id="av"/><g id="aw"/><g id="ax"/></svg>