<svg width="44" height="44" viewBox="0 0 44 44" fill="none" xmlns="http://www.w3.org/2000/svg">
<path d="M2.66667 24.4167H17.1667C18.4958 24.4167 19.5833 23.3292 19.5833 22V2.66667C19.5833 1.3375 18.4958 0.25 17.1667 0.25H2.66667C1.3375 0.25 0.25 1.3375 0.25 2.66667V22C0.25 23.3292 1.3375 24.4167 2.66667 24.4167ZM2.66667 43.75H17.1667C18.4958 43.75 19.5833 42.6625 19.5833 41.3333V31.6667C19.5833 30.3375 18.4958 29.25 17.1667 29.25H2.66667C1.3375 29.25 0.25 30.3375 0.25 31.6667V41.3333C0.25 42.6625 1.3375 43.75 2.66667 43.75ZM26.8333 43.75H41.3333C42.6625 43.75 43.75 42.6625 43.75 41.3333V22C43.75 20.6708 42.6625 19.5833 41.3333 19.5833H26.8333C25.5042 19.5833 24.4167 20.6708 24.4167 22V41.3333C24.4167 42.6625 25.5042 43.75 26.8333 43.75ZM24.4167 2.66667V12.3333C24.4167 13.6625 25.5042 14.75 26.8333 14.75H41.3333C42.6625 14.75 43.75 13.6625 43.75 12.3333V2.66667C43.75 1.3375 42.6625 0.25 41.3333 0.25H26.8333C25.5042 0.25 24.4167 1.3375 24.4167 2.66667Z" fill="url(#paint0_linear_64_47)"/>
<defs>
<linearGradient id="paint0_linear_64_47" x1="-2.16941" y1="144.487" x2="53.8285" y2="142.541" gradientUnits="userSpaceOnUse">
<stop stop-color="#F45139"/>
<stop offset="1" stop-color="#1A156E"/>
</linearGradient>
</defs>
</svg>
