<svg width="42" height="42" viewBox="0 0 42 42" fill="none" xmlns="http://www.w3.org/2000/svg">
<path d="M35.5958 6.40418C33.6837 4.47943 31.4096 2.95209 28.9045 1.91017C26.3995 0.868252 23.713 0.332349 21 0.333345C9.58163 0.333345 0.359131 9.58168 0.359131 21C0.359131 32.4183 9.58163 41.6667 21 41.6667C30.6358 41.6667 38.67 35.0792 40.9691 26.1667H35.5958C34.5316 29.1879 32.5561 31.8045 29.9418 33.6553C27.3274 35.5062 24.2032 36.5001 21 36.5C12.4491 36.5 5.49996 29.5508 5.49996 21C5.49996 12.4492 12.4491 5.50001 21 5.50001C25.2883 5.50001 29.1116 7.28251 31.9016 10.0983L23.5833 18.4167H41.6666V0.333345L35.5958 6.40418Z" fill="url(#paint0_linear_49_25)"/>
<defs>
<linearGradient id="paint0_linear_49_25" x1="-1.93833" y1="137.386" x2="51.2372" y2="135.54" gradientUnits="userSpaceOnUse">
<stop stop-color="#F45139"/>
<stop offset="1" stop-color="#1A156E"/>
</linearGradient>
</defs>
</svg>
